<mxfile>
    <diagram id="gKTQBFgvQ7YWo5DgVCbP" name="Page-1">
        <mxGraphModel dx="1091" dy="781" grid="1" gridSize="10" guides="1" tooltips="1" connect="1" arrows="1" fold="1" page="1" pageScale="1" pageWidth="850" pageHeight="1100" math="0" shadow="0">
            <root>
                <mxCell id="0"/>
                <mxCell id="1" parent="0"/>
                <mxCell id="16" value="" style="edgeStyle=orthogonalEdgeStyle;rounded=0;orthogonalLoop=1;jettySize=auto;html=1;" edge="1" parent="1" source="10" target="11">
                    <mxGeometry relative="1" as="geometry"/>
                </mxCell>
                <mxCell id="10" value="Linksys &lt;b&gt;WRT54G&lt;/b&gt;&lt;br&gt;DD-WRT&lt;br&gt;192.168.2.1" style="fontColor=#0066CC;verticalAlign=middle;verticalLabelPosition=middle;labelPosition=left;align=left;html=1;outlineConnect=0;fillColor=#CCCCCC;strokeColor=#6881B3;gradientColor=none;gradientDirection=north;strokeWidth=2;shape=mxgraph.networks.router;" vertex="1" parent="1">
                    <mxGeometry x="114" y="360" width="100" height="30" as="geometry"/>
                </mxCell>
                <mxCell id="27" value="" style="edgeStyle=orthogonalEdgeStyle;rounded=0;orthogonalLoop=1;jettySize=auto;html=1;" edge="1" parent="1" source="11" target="14">
                    <mxGeometry relative="1" as="geometry"/>
                </mxCell>
                <mxCell id="11" value="Linksys &lt;b&gt;E2500&lt;/b&gt;&lt;br&gt;192.168.1.1" style="fontColor=#0066CC;verticalAlign=middle;verticalLabelPosition=middle;labelPosition=left;align=left;html=1;outlineConnect=0;fillColor=#CCCCCC;strokeColor=#6881B3;gradientColor=none;gradientDirection=north;strokeWidth=2;shape=mxgraph.networks.router;" vertex="1" parent="1">
                    <mxGeometry x="114" y="290" width="100" height="30" as="geometry"/>
                </mxCell>
                <mxCell id="13" value="www" style="html=1;outlineConnect=0;fillColor=#CCCCCC;strokeColor=#6881B3;gradientColor=none;gradientDirection=north;strokeWidth=2;shape=mxgraph.networks.cloud;fontColor=#ffffff;" vertex="1" parent="1">
                    <mxGeometry x="119" y="120" width="90" height="50" as="geometry"/>
                </mxCell>
                <mxCell id="14" value="Cabel Modem" style="fontColor=#0066CC;verticalAlign=middle;verticalLabelPosition=middle;labelPosition=left;align=left;html=1;outlineConnect=0;fillColor=#CCCCCC;strokeColor=#6881B3;gradientColor=none;gradientDirection=north;strokeWidth=2;shape=mxgraph.networks.modem;" vertex="1" parent="1">
                    <mxGeometry x="114" y="220" width="100" height="30" as="geometry"/>
                </mxCell>
                <mxCell id="26" style="edgeStyle=orthogonalEdgeStyle;rounded=0;orthogonalLoop=1;jettySize=auto;html=1;entryX=1;entryY=0.5;entryDx=0;entryDy=0;entryPerimeter=0;" edge="1" parent="1" source="20" target="10">
                    <mxGeometry relative="1" as="geometry"/>
                </mxCell>
                <mxCell id="20" value="Pi 3 Model B Rev 1.2&lt;br&gt;host: &lt;b&gt;pi1&lt;/b&gt;&lt;br&gt;192.168.2.160" style="fontColor=#0066CC;verticalAlign=bottom;verticalLabelPosition=top;labelPosition=center;align=left;html=1;outlineConnect=0;fillColor=#CCCCCC;strokeColor=#6881B3;gradientColor=none;gradientDirection=north;strokeWidth=2;shape=mxgraph.networks.desktop_pc;" vertex="1" parent="1">
                    <mxGeometry x="290" y="355" width="75" height="40" as="geometry"/>
                </mxCell>
                <mxCell id="35" style="edgeStyle=orthogonalEdgeStyle;rounded=0;orthogonalLoop=1;jettySize=auto;html=1;" edge="1" parent="1" source="41" target="10">
                    <mxGeometry relative="1" as="geometry">
                        <mxPoint x="303" y="469.5" as="sourcePoint"/>
                    </mxGeometry>
                </mxCell>
                <mxCell id="30" value="Greenhouse" style="shape=or;whiteSpace=wrap;html=1;align=center;direction=north;" vertex="1" parent="1">
                    <mxGeometry x="627.5" y="433" width="90" height="70" as="geometry"/>
                </mxCell>
                <mxCell id="31" value="Ambient Weather&lt;br&gt;&lt;b&gt;WH31E&lt;/b&gt; &lt;br&gt;sensor: 1" style="fontColor=#0066CC;verticalAlign=middle;verticalLabelPosition=middle;labelPosition=right;align=left;html=1;outlineConnect=0;fillColor=#CCCCCC;strokeColor=#6881B3;gradientColor=none;gradientDirection=north;strokeWidth=2;shape=mxgraph.networks.modem;spacingLeft=2;" vertex="1" parent="1">
                    <mxGeometry x="627.5" y="513" width="29" height="50" as="geometry"/>
                </mxCell>
                <mxCell id="38" value="" style="html=1;outlineConnect=0;fillColor=#CCCCCC;strokeColor=#6881B3;gradientColor=none;gradientDirection=north;strokeWidth=2;shape=mxgraph.networks.comm_link_edge;html=1;" edge="1" parent="1" target="31">
                    <mxGeometry width="100" height="100" relative="1" as="geometry">
                        <mxPoint x="402.5" y="492" as="sourcePoint"/>
                        <mxPoint x="502.5" y="392" as="targetPoint"/>
                    </mxGeometry>
                </mxCell>
                <mxCell id="41" value="Ambient Weather&amp;nbsp;&lt;br&gt;&lt;b&gt;ObserverIP&lt;/b&gt;&lt;br&gt;192.168.2.151" style="fontColor=#0066CC;verticalAlign=top;verticalLabelPosition=bottom;labelPosition=center;align=center;html=1;outlineConnect=0;fillColor=#CCCCCC;strokeColor=#6881B3;gradientColor=none;gradientDirection=north;strokeWidth=2;shape=mxgraph.networks.router;" vertex="1" parent="1">
                    <mxGeometry x="350" y="475" width="100" height="30" as="geometry"/>
                </mxCell>
                <mxCell id="47" value="&lt;span style=&quot;color: rgb(0 , 0 , 0) ; font-size: 11px ; background-color: rgb(255 , 255 , 255)&quot;&gt;ambientweather.net&lt;/span&gt;" style="fontColor=#0066CC;verticalAlign=top;verticalLabelPosition=bottom;labelPosition=center;align=center;html=1;outlineConnect=0;fillColor=#CCCCCC;strokeColor=#6881B3;gradientColor=none;gradientDirection=north;strokeWidth=2;shape=mxgraph.networks.rack;" vertex="1" parent="1">
                    <mxGeometry x="490" y="90" width="50" height="100" as="geometry"/>
                </mxCell>
                <mxCell id="49" value="" style="edgeStyle=orthogonalEdgeStyle;rounded=0;orthogonalLoop=1;jettySize=auto;html=1;entryX=0.5;entryY=1;entryDx=0;entryDy=0;entryPerimeter=0;" edge="1" parent="1" target="13">
                    <mxGeometry relative="1" as="geometry">
                        <mxPoint x="164" y="220" as="sourcePoint"/>
                        <mxPoint x="174" y="260" as="targetPoint"/>
                    </mxGeometry>
                </mxCell>
                <mxCell id="51" value="" style="edgeStyle=orthogonalEdgeStyle;orthogonalLoop=1;jettySize=auto;html=1;rounded=0;" edge="1" parent="1" source="13" target="47">
                    <mxGeometry relative="1" as="geometry">
                        <mxPoint x="174" y="230" as="sourcePoint"/>
                        <mxPoint x="174" y="180" as="targetPoint"/>
                    </mxGeometry>
                </mxCell>
                <mxCell id="54" value="" style="endArrow=none;html=1;fontSize=12;exitX=0.003;exitY=0.086;exitDx=0;exitDy=0;exitPerimeter=0;dashed=1;edgeStyle=orthogonalEdgeStyle;curved=1;fillColor=#f8cecc;strokeColor=#b85450;strokeWidth=3;endFill=0;opacity=50;entryX=0;entryY=0.5;entryDx=0;entryDy=0;" edge="1" parent="1" source="41" target="58">
                    <mxGeometry relative="1" as="geometry">
                        <mxPoint x="320" y="460" as="sourcePoint"/>
                        <mxPoint x="310" y="430" as="targetPoint"/>
                        <Array as="points">
                            <mxPoint x="350" y="480"/>
                            <mxPoint x="170" y="480"/>
                            <mxPoint x="170" y="385"/>
                            <mxPoint x="317" y="385"/>
                        </Array>
                    </mxGeometry>
                </mxCell>
                <mxCell id="56" value="" style="endArrow=classic;html=1;fontSize=12;dashed=1;edgeStyle=orthogonalEdgeStyle;curved=1;fillColor=#f8cecc;strokeColor=#b85450;strokeWidth=3;opacity=60;exitX=0;exitY=0.25;exitDx=0;exitDy=0;" edge="1" parent="1" source="58" target="47">
                    <mxGeometry relative="1" as="geometry">
                        <mxPoint x="230.30000000000007" y="302.58000000000004" as="sourcePoint"/>
                        <mxPoint x="490" y="140" as="targetPoint"/>
                        <Array as="points">
                            <mxPoint x="291" y="370"/>
                            <mxPoint x="291" y="375"/>
                            <mxPoint x="170" y="375"/>
                            <mxPoint x="170" y="130"/>
                            <mxPoint x="400" y="130"/>
                            <mxPoint x="400" y="120"/>
                        </Array>
                    </mxGeometry>
                </mxCell>
                <mxCell id="57" value="push sensor data" style="edgeLabel;resizable=0;html=1;align=center;verticalAlign=middle;" connectable="0" vertex="1" parent="56">
                    <mxGeometry relative="1" as="geometry">
                        <mxPoint x="24" y="-23.21" as="offset"/>
                    </mxGeometry>
                </mxCell>
                <mxCell id="58" value="N" style="shape=hexagon;perimeter=hexagonPerimeter2;whiteSpace=wrap;html=1;fixedSize=1;fontSize=12;align=left;fillColor=#f8cecc;strokeColor=#b85450;size=-130;" vertex="1" parent="1">
                    <mxGeometry x="317.5" y="365" width="20" height="20" as="geometry"/>
                </mxCell>
                <mxCell id="61" value="Todo&lt;br&gt;Prometheus" style="rounded=1;whiteSpace=wrap;html=1;absoluteArcSize=1;arcSize=14;strokeWidth=2;fontSize=12;align=center;" vertex="1" parent="1">
                    <mxGeometry x="450" y="350" width="90" height="50" as="geometry"/>
                </mxCell>
                <mxCell id="62" value="" style="endArrow=classic;html=1;dashed=1;strokeWidth=3;fontSize=12;opacity=50;entryX=0;entryY=0.5;entryDx=0;entryDy=0;exitX=1;exitY=0.5;exitDx=0;exitDy=0;fillColor=#f8cecc;strokeColor=#b85450;" edge="1" parent="1" source="58" target="61">
                    <mxGeometry width="50" height="50" relative="1" as="geometry">
                        <mxPoint x="350" y="400" as="sourcePoint"/>
                        <mxPoint x="350" y="360" as="targetPoint"/>
                    </mxGeometry>
                </mxCell>
            </root>
        </mxGraphModel>
    </diagram>
</mxfile>